<mxfile host="app.diagrams.net" modified="2021-02-25T04:53:23.943Z" agent="5.0 (Windows NT 10.0; Win64; x64) AppleWebKit/537.36 (KHTML, like Gecko) Chrome/72.0.3626.119 Safari/537.36" etag="B4rpFzbOzktj1igeeXDq" version="14.2.9" type="github">
  <diagram id="hRr0t8NNIknqq6meK8ZH" name="第 1 页">
    <mxGraphModel dx="1422" dy="762" grid="1" gridSize="10" guides="1" tooltips="1" connect="1" arrows="1" fold="1" page="1" pageScale="1" pageWidth="827" pageHeight="1169" math="0" shadow="0">
      <root>
        <mxCell id="0" />
        <mxCell id="1" parent="0" />
        <mxCell id="j9LlFNh9uAXtFJE98m8C-3" style="edgeStyle=orthogonalEdgeStyle;rounded=0;orthogonalLoop=1;jettySize=auto;html=1;entryX=0;entryY=0.5;entryDx=0;entryDy=0;entryPerimeter=0;" edge="1" parent="1" source="j9LlFNh9uAXtFJE98m8C-1" target="j9LlFNh9uAXtFJE98m8C-2">
          <mxGeometry relative="1" as="geometry" />
        </mxCell>
        <mxCell id="j9LlFNh9uAXtFJE98m8C-11" style="edgeStyle=orthogonalEdgeStyle;rounded=0;orthogonalLoop=1;jettySize=auto;html=1;entryX=0.5;entryY=0;entryDx=0;entryDy=0;fontColor=#000000;" edge="1" parent="1" source="j9LlFNh9uAXtFJE98m8C-1" target="j9LlFNh9uAXtFJE98m8C-6">
          <mxGeometry relative="1" as="geometry" />
        </mxCell>
        <mxCell id="j9LlFNh9uAXtFJE98m8C-1" value="服务器A" style="fontColor=#0066CC;verticalAlign=top;verticalLabelPosition=bottom;labelPosition=center;align=center;html=1;outlineConnect=0;fillColor=#CCCCCC;strokeColor=#6881B3;gradientColor=none;gradientDirection=north;strokeWidth=2;shape=mxgraph.networks.rack;" vertex="1" parent="1">
          <mxGeometry x="130" y="140" width="50" height="100" as="geometry" />
        </mxCell>
        <mxCell id="j9LlFNh9uAXtFJE98m8C-4" style="edgeStyle=orthogonalEdgeStyle;rounded=0;orthogonalLoop=1;jettySize=auto;html=1;entryX=1;entryY=0.5;entryDx=0;entryDy=0;entryPerimeter=0;" edge="1" parent="1" source="j9LlFNh9uAXtFJE98m8C-2" target="j9LlFNh9uAXtFJE98m8C-1">
          <mxGeometry relative="1" as="geometry" />
        </mxCell>
        <mxCell id="j9LlFNh9uAXtFJE98m8C-5" value="内网端口互通" style="edgeLabel;html=1;align=center;verticalAlign=middle;resizable=0;points=[];" vertex="1" connectable="0" parent="j9LlFNh9uAXtFJE98m8C-4">
          <mxGeometry x="-0.1243" y="2" relative="1" as="geometry">
            <mxPoint x="-18" y="-2" as="offset" />
          </mxGeometry>
        </mxCell>
        <mxCell id="j9LlFNh9uAXtFJE98m8C-12" style="edgeStyle=orthogonalEdgeStyle;rounded=0;orthogonalLoop=1;jettySize=auto;html=1;entryX=0.5;entryY=0;entryDx=0;entryDy=0;fontColor=#000000;" edge="1" parent="1" source="j9LlFNh9uAXtFJE98m8C-2" target="j9LlFNh9uAXtFJE98m8C-7">
          <mxGeometry relative="1" as="geometry" />
        </mxCell>
        <mxCell id="j9LlFNh9uAXtFJE98m8C-2" value="服务器B" style="fontColor=#0066CC;verticalAlign=top;verticalLabelPosition=bottom;labelPosition=center;align=center;html=1;outlineConnect=0;fillColor=#CCCCCC;strokeColor=#6881B3;gradientColor=none;gradientDirection=north;strokeWidth=2;shape=mxgraph.networks.rack;" vertex="1" parent="1">
          <mxGeometry x="550" y="140" width="50" height="100" as="geometry" />
        </mxCell>
        <mxCell id="j9LlFNh9uAXtFJE98m8C-6" value="" style="whiteSpace=wrap;html=1;aspect=fixed;" vertex="1" parent="1">
          <mxGeometry x="55" y="290" width="200" height="200" as="geometry" />
        </mxCell>
        <mxCell id="j9LlFNh9uAXtFJE98m8C-7" value="" style="whiteSpace=wrap;html=1;aspect=fixed;" vertex="1" parent="1">
          <mxGeometry x="475" y="290" width="200" height="200" as="geometry" />
        </mxCell>
        <mxCell id="j9LlFNh9uAXtFJE98m8C-9" value="应用程序-主" style="html=1;outlineConnect=0;fillColor=#CCCCCC;strokeColor=#6881B3;gradientColor=none;gradientDirection=north;strokeWidth=2;shape=mxgraph.networks.cloud;" vertex="1" parent="1">
          <mxGeometry x="110" y="310" width="90" height="50" as="geometry" />
        </mxCell>
        <mxCell id="j9LlFNh9uAXtFJE98m8C-10" value="数据库-主" style="fontColor=#0066CC;verticalAlign=top;verticalLabelPosition=bottom;labelPosition=center;align=center;html=1;outlineConnect=0;fillColor=#CCCCCC;strokeColor=#6881B3;gradientColor=none;gradientDirection=north;strokeWidth=2;shape=mxgraph.networks.storage;" vertex="1" parent="1">
          <mxGeometry x="125" y="390" width="60" height="60" as="geometry" />
        </mxCell>
        <mxCell id="j9LlFNh9uAXtFJE98m8C-13" value="应用程序-备" style="html=1;outlineConnect=0;fillColor=#CCCCCC;strokeColor=#6881B3;gradientColor=none;gradientDirection=north;strokeWidth=2;shape=mxgraph.networks.cloud;" vertex="1" parent="1">
          <mxGeometry x="530" y="310" width="90" height="50" as="geometry" />
        </mxCell>
        <mxCell id="j9LlFNh9uAXtFJE98m8C-14" value="数据库-备" style="fontColor=#0066CC;verticalAlign=top;verticalLabelPosition=bottom;labelPosition=center;align=center;html=1;outlineConnect=0;fillColor=#CCCCCC;strokeColor=#6881B3;gradientColor=none;gradientDirection=north;strokeWidth=2;shape=mxgraph.networks.storage;" vertex="1" parent="1">
          <mxGeometry x="545" y="390" width="60" height="60" as="geometry" />
        </mxCell>
      </root>
    </mxGraphModel>
  </diagram>
</mxfile>
